<svg xmlns="http://www.w3.org/2000/svg" width="1000" height="440" viewBox="0 0 1000 440">
<text x="500.0" y="34" text-anchor="middle" font-family="Inter,Arial" font-size="23" font-weight="700" fill="#e9edf3">Terminal Universe Explorer v3.0 - Dataset v6.0</text>
<text x="500.0" y="66" text-anchor="middle" font-family="Inter,Arial" font-size="19" fill="#e9edf3">Interaction complexity distribution</text>
<text x="500.0" y="94" text-anchor="middle" font-family="Inter,Arial" font-size="13" fill="#aab3bf">How much the interface reshapes classic terminal use.</text>
<line x1="315" y1="345" x2="910" y2="345" stroke="#7b8794" stroke-width="1.2"/>
<line x1="315" y1="125" x2="315" y2="345" stroke="#7b8794" stroke-width="1.2"/>
<text x="303" y="156.08" text-anchor="end" font-family="Inter,Arial" font-size="14" fill="#e9edf3">Document Oriented</text>
<rect x="315" y="135.0" width="37.9" height="31.0" rx="5" fill="#38c98b"/>
<text x="361.9" y="156.08" font-family="Inter,Arial" font-size="14" fill="#e9edf3">3</text>
<text x="303" y="206.08" text-anchor="end" font-family="Inter,Arial" font-size="14" fill="#e9edf3">Workflow Augmented</text>
<rect x="315" y="185.0" width="37.9" height="31.0" rx="5" fill="#38c98b"/>
<text x="361.9" y="206.08" font-family="Inter,Arial" font-size="14" fill="#e9edf3">3</text>
<text x="303" y="256.08" text-anchor="end" font-family="Inter,Arial" font-size="14" fill="#e9edf3">Classic Tty</text>
<rect x="315" y="235.0" width="265.1" height="31.0" rx="5" fill="#38c98b"/>
<text x="589.1" y="256.08" font-family="Inter,Arial" font-size="14" fill="#e9edf3">21</text>
<text x="303" y="306.08" text-anchor="end" font-family="Inter,Arial" font-size="14" fill="#e9edf3">Multiplexed Ui</text>
<rect x="315" y="285.0" width="505.0" height="31.0" rx="5" fill="#38c98b"/>
<text x="829.0" y="306.08" font-family="Inter,Arial" font-size="14" fill="#e9edf3">40</text>
<text x="612.5" y="396" text-anchor="middle" font-family="Inter,Arial" font-size="15" fill="#e9edf3">Number of terminals</text>
<text x="55" y="235.0" transform="rotate(-90 55,235.0)" text-anchor="middle" font-family="Inter,Arial" font-size="15" fill="#e9edf3">InteractionComplexity</text>
<text x="685" y="396" font-family="Inter,Arial" font-size="12" fill="#aab3bf">Legend: bar length = terminal count</text>
</svg>