<svg xmlns="http://www.w3.org/2000/svg" width="900" height="568" viewBox="0 0 900 568">
<rect width="100%" height="100%" fill="#ffffff"/>
<text x="450.0" y="34" text-anchor="middle" font-family="Inter,Arial" font-size="23" font-weight="700" fill="#111">Terminal Universe Explorer v3.0 - Dataset v6.0</text>
<text x="450.0" y="66" text-anchor="middle" font-family="Inter,Arial" font-size="19" fill="#111">Observed design-space combinations</text>
<text x="450.0" y="96" text-anchor="middle" font-family="Inter,Arial" font-size="15" fill="#333">EngineFamily × SemanticLayer</text>
<text x="320.0" y="145" text-anchor="middle" font-family="Inter,Arial" font-size="11" fill="#111" transform="rotate(-22 320.0,145)">Document</text>
<text x="500.0" y="145" text-anchor="middle" font-family="Inter,Arial" font-size="11" fill="#111" transform="rotate(-22 500.0,145)">None</text>
<text x="680.0" y="145" text-anchor="middle" font-family="Inter,Arial" font-size="11" fill="#111" transform="rotate(-22 680.0,145)">Workflow</text>
<text x="218" y="205.0" text-anchor="end" font-family="Inter,Arial" font-size="12" fill="#111">Custom Engine</text>
<rect x="230" y="165" width="180" height="72" fill="#32113a"><title>custom_engine × document: 0</title></rect>
<text x="320.0" y="206.0" text-anchor="middle" font-family="Inter,Arial" font-size="18" fill="#000">0</text>
<rect x="410" y="165" width="180" height="72" fill="#32113a"><title>custom_engine × none: 12</title></rect>
<text x="500.0" y="206.0" text-anchor="middle" font-family="Inter,Arial" font-size="18" fill="#000">12</text>
<rect x="590" y="165" width="180" height="72" fill="#32113a"><title>custom_engine × workflow: 1</title></rect>
<text x="680.0" y="206.0" text-anchor="middle" font-family="Inter,Arial" font-size="18" fill="#000">1</text>
<text x="218" y="277.0" text-anchor="end" font-family="Inter,Arial" font-size="12" fill="#111">Minimal Native Engine</text>
<rect x="230" y="237" width="180" height="72" fill="#32113a"><title>minimal_native_engine × document: 0</title></rect>
<text x="320.0" y="278.0" text-anchor="middle" font-family="Inter,Arial" font-size="18" fill="#000">0</text>
<rect x="410" y="237" width="180" height="72" fill="#32113a"><title>minimal_native_engine × none: 6</title></rect>
<text x="500.0" y="278.0" text-anchor="middle" font-family="Inter,Arial" font-size="18" fill="#000">6</text>
<rect x="590" y="237" width="180" height="72" fill="#32113a"><title>minimal_native_engine × workflow: 0</title></rect>
<text x="680.0" y="278.0" text-anchor="middle" font-family="Inter,Arial" font-size="18" fill="#000">0</text>
<text x="218" y="349.0" text-anchor="end" font-family="Inter,Arial" font-size="12" fill="#111">Reused Widget Engine</text>
<rect x="230" y="309" width="180" height="72" fill="#32113a"><title>reused_widget_engine × document: 1</title></rect>
<text x="320.0" y="350.0" text-anchor="middle" font-family="Inter,Arial" font-size="18" fill="#000">1</text>
<rect x="410" y="309" width="180" height="72" fill="#fde725"><title>reused_widget_engine × none: 40</title></rect>
<text x="500.0" y="350.0" text-anchor="middle" font-family="Inter,Arial" font-size="18" fill="#000">40</text>
<rect x="590" y="309" width="180" height="72" fill="#32113a"><title>reused_widget_engine × workflow: 1</title></rect>
<text x="680.0" y="350.0" text-anchor="middle" font-family="Inter,Arial" font-size="18" fill="#000">1</text>
<text x="218" y="421.0" text-anchor="end" font-family="Inter,Arial" font-size="12" fill="#111">Web Runtime Engine</text>
<rect x="230" y="381" width="180" height="72" fill="#32113a"><title>web_runtime_engine × document: 2</title></rect>
<text x="320.0" y="422.0" text-anchor="middle" font-family="Inter,Arial" font-size="18" fill="#000">2</text>
<rect x="410" y="381" width="180" height="72" fill="#32113a"><title>web_runtime_engine × none: 3</title></rect>
<text x="500.0" y="422.0" text-anchor="middle" font-family="Inter,Arial" font-size="18" fill="#000">3</text>
<rect x="590" y="381" width="180" height="72" fill="#32113a"><title>web_runtime_engine × workflow: 1</title></rect>
<text x="680.0" y="422.0" text-anchor="middle" font-family="Inter,Arial" font-size="18" fill="#000">1</text>
<text x="803" y="147" font-family="Inter,Arial" font-size="12" fill="#111">Observed</text>
<rect x="810" y="165" width="20" height="3.2" fill="#fde725"/>
<rect x="810" y="168" width="20" height="3.2" fill="#fde725"/>
<rect x="810" y="171" width="20" height="3.2" fill="#fde725"/>
<rect x="810" y="174" width="20" height="3.2" fill="#fde725"/>
<rect x="810" y="177" width="20" height="3.2" fill="#fde725"/>
<rect x="810" y="180" width="20" height="3.2" fill="#fde725"/>
<rect x="810" y="183" width="20" height="3.2" fill="#fde725"/>
<rect x="810" y="186" width="20" height="3.2" fill="#fde725"/>
<rect x="810" y="189" width="20" height="3.2" fill="#38c98b"/>
<rect x="810" y="192" width="20" height="3.2" fill="#38c98b"/>
<rect x="810" y="195" width="20" height="3.2" fill="#38c98b"/>
<rect x="810" y="198" width="20" height="3.2" fill="#38c98b"/>
<rect x="810" y="201" width="20" height="3.2" fill="#38c98b"/>
<rect x="810" y="204" width="20" height="3.2" fill="#38c98b"/>
<rect x="810" y="207" width="20" height="3.2" fill="#38c98b"/>
<rect x="810" y="210" width="20" height="3.2" fill="#38c98b"/>
<rect x="810" y="213" width="20" height="3.2" fill="#38c98b"/>
<rect x="810" y="216" width="20" height="3.2" fill="#38c98b"/>
<rect x="810" y="219" width="20" height="3.2" fill="#38c98b"/>
<rect x="810" y="222" width="20" height="3.2" fill="#38c98b"/>
<rect x="810" y="225" width="20" height="3.2" fill="#38c98b"/>
<rect x="810" y="228" width="20" height="3.2" fill="#38c98b"/>
<rect x="810" y="231" width="20" height="3.2" fill="#38c98b"/>
<rect x="810" y="234" width="20" height="3.2" fill="#38c98b"/>
<rect x="810" y="237" width="20" height="3.2" fill="#2b82b8"/>
<rect x="810" y="240" width="20" height="3.2" fill="#2b82b8"/>
<rect x="810" y="243" width="20" height="3.2" fill="#2b82b8"/>
<rect x="810" y="246" width="20" height="3.2" fill="#2b82b8"/>
<rect x="810" y="249" width="20" height="3.2" fill="#2b82b8"/>
<rect x="810" y="252" width="20" height="3.2" fill="#2b82b8"/>
<rect x="810" y="255" width="20" height="3.2" fill="#2b82b8"/>
<rect x="810" y="258" width="20" height="3.2" fill="#2b82b8"/>
<rect x="810" y="261" width="20" height="3.2" fill="#2b82b8"/>
<rect x="810" y="264" width="20" height="3.2" fill="#2b82b8"/>
<rect x="810" y="267" width="20" height="3.2" fill="#2b82b8"/>
<rect x="810" y="270" width="20" height="3.2" fill="#2b82b8"/>
<rect x="810" y="273" width="20" height="3.2" fill="#2b82b8"/>
<rect x="810" y="276" width="20" height="3.2" fill="#2b82b8"/>
<rect x="810" y="279" width="20" height="3.2" fill="#2b82b8"/>
<rect x="810" y="282" width="20" height="3.2" fill="#2b82b8"/>
<rect x="810" y="285" width="20" height="3.2" fill="#2b82b8"/>
<rect x="810" y="288" width="20" height="3.2" fill="#2b82b8"/>
<rect x="810" y="291" width="20" height="3.2" fill="#2b82b8"/>
<rect x="810" y="294" width="20" height="3.2" fill="#2b82b8"/>
<rect x="810" y="297" width="20" height="3.2" fill="#32113a"/>
<rect x="810" y="300" width="20" height="3.2" fill="#32113a"/>
<rect x="810" y="303" width="20" height="3.2" fill="#32113a"/>
<rect x="810" y="306" width="20" height="3.2" fill="#32113a"/>
<rect x="810" y="309" width="20" height="3.2" fill="#32113a"/>
<rect x="810" y="312" width="20" height="3.2" fill="#32113a"/>
<rect x="810" y="315" width="20" height="3.2" fill="#32113a"/>
<rect x="810" y="318" width="20" height="3.2" fill="#32113a"/>
<rect x="810" y="321" width="20" height="3.2" fill="#32113a"/>
<rect x="810" y="324" width="20" height="3.2" fill="#32113a"/>
<rect x="810" y="327" width="20" height="3.2" fill="#32113a"/>
<rect x="810" y="330" width="20" height="3.2" fill="#32113a"/>
<rect x="810" y="333" width="20" height="3.2" fill="#32113a"/>
<rect x="810" y="336" width="20" height="3.2" fill="#32113a"/>
<rect x="810" y="339" width="20" height="3.2" fill="#32113a"/>
<rect x="810" y="342" width="20" height="3.2" fill="#32113a"/>
<rect x="810" y="345" width="20" height="3.2" fill="#32113a"/>
<rect x="810" y="348" width="20" height="3.2" fill="#32113a"/>
<rect x="810" y="351" width="20" height="3.2" fill="#32113a"/>
<rect x="810" y="354" width="20" height="3.2" fill="#32113a"/>
<rect x="810" y="357" width="20" height="3.2" fill="#32113a"/>
<rect x="810" y="360" width="20" height="3.2" fill="#32113a"/>
<rect x="810" y="363" width="20" height="3.2" fill="#32113a"/>
<rect x="810" y="366" width="20" height="3.2" fill="#32113a"/>
<rect x="810" y="369" width="20" height="3.2" fill="#32113a"/>
<rect x="810" y="372" width="20" height="3.2" fill="#32113a"/>
<rect x="810" y="375" width="20" height="3.2" fill="#32113a"/>
<rect x="810" y="378" width="20" height="3.2" fill="#32113a"/>
<rect x="810" y="381" width="20" height="3.2" fill="#32113a"/>
<rect x="810" y="384" width="20" height="3.2" fill="#32113a"/>
<rect x="810" y="387" width="20" height="3.2" fill="#32113a"/>
<rect x="810" y="390" width="20" height="3.2" fill="#32113a"/>
<rect x="810" y="393" width="20" height="3.2" fill="#32113a"/>
<rect x="810" y="396" width="20" height="3.2" fill="#32113a"/>
<rect x="810" y="399" width="20" height="3.2" fill="#32113a"/>
<rect x="810" y="402" width="20" height="3.2" fill="#32113a"/>
</svg>