<svg xmlns="http://www.w3.org/2000/svg" width="1080" height="568" viewBox="0 0 1080 568">
<rect width="100%" height="100%" fill="#ffffff"/>
<text x="540.0" y="34" text-anchor="middle" font-family="Inter,Arial" font-size="23" font-weight="700" fill="#111">Terminal Universe Explorer v3.0 - Dataset v6.0</text>
<text x="540.0" y="66" text-anchor="middle" font-family="Inter,Arial" font-size="19" fill="#111">Observed design-space combinations</text>
<text x="540.0" y="96" text-anchor="middle" font-family="Inter,Arial" font-size="15" fill="#333">EngineFamily × InteractionComplexity</text>
<text x="320.0" y="145" text-anchor="middle" font-family="Inter,Arial" font-size="11" fill="#111" transform="rotate(-22 320.0,145)">Classic Tty</text>
<text x="500.0" y="145" text-anchor="middle" font-family="Inter,Arial" font-size="11" fill="#111" transform="rotate(-22 500.0,145)">Document Oriented</text>
<text x="680.0" y="145" text-anchor="middle" font-family="Inter,Arial" font-size="11" fill="#111" transform="rotate(-22 680.0,145)">Multiplexed Ui</text>
<text x="860.0" y="145" text-anchor="middle" font-family="Inter,Arial" font-size="11" fill="#111" transform="rotate(-22 860.0,145)">Workflow Augmented</text>
<text x="218" y="205.0" text-anchor="end" font-family="Inter,Arial" font-size="12" fill="#111">Custom Engine</text>
<rect x="230" y="165" width="180" height="72" fill="#32113a"><title>custom_engine × classic_tty: 7</title></rect>
<text x="320.0" y="206.0" text-anchor="middle" font-family="Inter,Arial" font-size="18" fill="#000">7</text>
<rect x="410" y="165" width="180" height="72" fill="#32113a"><title>custom_engine × document_oriented: 0</title></rect>
<text x="500.0" y="206.0" text-anchor="middle" font-family="Inter,Arial" font-size="18" fill="#000">0</text>
<rect x="590" y="165" width="180" height="72" fill="#32113a"><title>custom_engine × multiplexed_ui: 5</title></rect>
<text x="680.0" y="206.0" text-anchor="middle" font-family="Inter,Arial" font-size="18" fill="#000">5</text>
<rect x="770" y="165" width="180" height="72" fill="#32113a"><title>custom_engine × workflow_augmented: 1</title></rect>
<text x="860.0" y="206.0" text-anchor="middle" font-family="Inter,Arial" font-size="18" fill="#000">1</text>
<text x="218" y="277.0" text-anchor="end" font-family="Inter,Arial" font-size="12" fill="#111">Minimal Native Engine</text>
<rect x="230" y="237" width="180" height="72" fill="#32113a"><title>minimal_native_engine × classic_tty: 4</title></rect>
<text x="320.0" y="278.0" text-anchor="middle" font-family="Inter,Arial" font-size="18" fill="#000">4</text>
<rect x="410" y="237" width="180" height="72" fill="#32113a"><title>minimal_native_engine × document_oriented: 0</title></rect>
<text x="500.0" y="278.0" text-anchor="middle" font-family="Inter,Arial" font-size="18" fill="#000">0</text>
<rect x="590" y="237" width="180" height="72" fill="#32113a"><title>minimal_native_engine × multiplexed_ui: 2</title></rect>
<text x="680.0" y="278.0" text-anchor="middle" font-family="Inter,Arial" font-size="18" fill="#000">2</text>
<rect x="770" y="237" width="180" height="72" fill="#32113a"><title>minimal_native_engine × workflow_augmented: 0</title></rect>
<text x="860.0" y="278.0" text-anchor="middle" font-family="Inter,Arial" font-size="18" fill="#000">0</text>
<text x="218" y="349.0" text-anchor="end" font-family="Inter,Arial" font-size="12" fill="#111">Reused Widget Engine</text>
<rect x="230" y="309" width="180" height="72" fill="#32113a"><title>reused_widget_engine × classic_tty: 10</title></rect>
<text x="320.0" y="350.0" text-anchor="middle" font-family="Inter,Arial" font-size="18" fill="#000">10</text>
<rect x="410" y="309" width="180" height="72" fill="#32113a"><title>reused_widget_engine × document_oriented: 1</title></rect>
<text x="500.0" y="350.0" text-anchor="middle" font-family="Inter,Arial" font-size="18" fill="#000">1</text>
<rect x="590" y="309" width="180" height="72" fill="#fde725"><title>reused_widget_engine × multiplexed_ui: 30</title></rect>
<text x="680.0" y="350.0" text-anchor="middle" font-family="Inter,Arial" font-size="18" fill="#000">30</text>
<rect x="770" y="309" width="180" height="72" fill="#32113a"><title>reused_widget_engine × workflow_augmented: 1</title></rect>
<text x="860.0" y="350.0" text-anchor="middle" font-family="Inter,Arial" font-size="18" fill="#000">1</text>
<text x="218" y="421.0" text-anchor="end" font-family="Inter,Arial" font-size="12" fill="#111">Web Runtime Engine</text>
<rect x="230" y="381" width="180" height="72" fill="#32113a"><title>web_runtime_engine × classic_tty: 0</title></rect>
<text x="320.0" y="422.0" text-anchor="middle" font-family="Inter,Arial" font-size="18" fill="#000">0</text>
<rect x="410" y="381" width="180" height="72" fill="#32113a"><title>web_runtime_engine × document_oriented: 2</title></rect>
<text x="500.0" y="422.0" text-anchor="middle" font-family="Inter,Arial" font-size="18" fill="#000">2</text>
<rect x="590" y="381" width="180" height="72" fill="#32113a"><title>web_runtime_engine × multiplexed_ui: 3</title></rect>
<text x="680.0" y="422.0" text-anchor="middle" font-family="Inter,Arial" font-size="18" fill="#000">3</text>
<rect x="770" y="381" width="180" height="72" fill="#32113a"><title>web_runtime_engine × workflow_augmented: 1</title></rect>
<text x="860.0" y="422.0" text-anchor="middle" font-family="Inter,Arial" font-size="18" fill="#000">1</text>
<text x="983" y="147" font-family="Inter,Arial" font-size="12" fill="#111">Observed</text>
<rect x="990" y="165" width="20" height="3.2" fill="#fde725"/>
<rect x="990" y="168" width="20" height="3.2" fill="#fde725"/>
<rect x="990" y="171" width="20" height="3.2" fill="#fde725"/>
<rect x="990" y="174" width="20" height="3.2" fill="#fde725"/>
<rect x="990" y="177" width="20" height="3.2" fill="#fde725"/>
<rect x="990" y="180" width="20" height="3.2" fill="#fde725"/>
<rect x="990" y="183" width="20" height="3.2" fill="#fde725"/>
<rect x="990" y="186" width="20" height="3.2" fill="#fde725"/>
<rect x="990" y="189" width="20" height="3.2" fill="#38c98b"/>
<rect x="990" y="192" width="20" height="3.2" fill="#38c98b"/>
<rect x="990" y="195" width="20" height="3.2" fill="#38c98b"/>
<rect x="990" y="198" width="20" height="3.2" fill="#38c98b"/>
<rect x="990" y="201" width="20" height="3.2" fill="#38c98b"/>
<rect x="990" y="204" width="20" height="3.2" fill="#38c98b"/>
<rect x="990" y="207" width="20" height="3.2" fill="#38c98b"/>
<rect x="990" y="210" width="20" height="3.2" fill="#38c98b"/>
<rect x="990" y="213" width="20" height="3.2" fill="#38c98b"/>
<rect x="990" y="216" width="20" height="3.2" fill="#38c98b"/>
<rect x="990" y="219" width="20" height="3.2" fill="#38c98b"/>
<rect x="990" y="222" width="20" height="3.2" fill="#38c98b"/>
<rect x="990" y="225" width="20" height="3.2" fill="#38c98b"/>
<rect x="990" y="228" width="20" height="3.2" fill="#38c98b"/>
<rect x="990" y="231" width="20" height="3.2" fill="#38c98b"/>
<rect x="990" y="234" width="20" height="3.2" fill="#38c98b"/>
<rect x="990" y="237" width="20" height="3.2" fill="#2b82b8"/>
<rect x="990" y="240" width="20" height="3.2" fill="#2b82b8"/>
<rect x="990" y="243" width="20" height="3.2" fill="#2b82b8"/>
<rect x="990" y="246" width="20" height="3.2" fill="#2b82b8"/>
<rect x="990" y="249" width="20" height="3.2" fill="#2b82b8"/>
<rect x="990" y="252" width="20" height="3.2" fill="#2b82b8"/>
<rect x="990" y="255" width="20" height="3.2" fill="#2b82b8"/>
<rect x="990" y="258" width="20" height="3.2" fill="#2b82b8"/>
<rect x="990" y="261" width="20" height="3.2" fill="#2b82b8"/>
<rect x="990" y="264" width="20" height="3.2" fill="#2b82b8"/>
<rect x="990" y="267" width="20" height="3.2" fill="#2b82b8"/>
<rect x="990" y="270" width="20" height="3.2" fill="#2b82b8"/>
<rect x="990" y="273" width="20" height="3.2" fill="#2b82b8"/>
<rect x="990" y="276" width="20" height="3.2" fill="#2b82b8"/>
<rect x="990" y="279" width="20" height="3.2" fill="#2b82b8"/>
<rect x="990" y="282" width="20" height="3.2" fill="#2b82b8"/>
<rect x="990" y="285" width="20" height="3.2" fill="#2b82b8"/>
<rect x="990" y="288" width="20" height="3.2" fill="#2b82b8"/>
<rect x="990" y="291" width="20" height="3.2" fill="#2b82b8"/>
<rect x="990" y="294" width="20" height="3.2" fill="#2b82b8"/>
<rect x="990" y="297" width="20" height="3.2" fill="#32113a"/>
<rect x="990" y="300" width="20" height="3.2" fill="#32113a"/>
<rect x="990" y="303" width="20" height="3.2" fill="#32113a"/>
<rect x="990" y="306" width="20" height="3.2" fill="#32113a"/>
<rect x="990" y="309" width="20" height="3.2" fill="#32113a"/>
<rect x="990" y="312" width="20" height="3.2" fill="#32113a"/>
<rect x="990" y="315" width="20" height="3.2" fill="#32113a"/>
<rect x="990" y="318" width="20" height="3.2" fill="#32113a"/>
<rect x="990" y="321" width="20" height="3.2" fill="#32113a"/>
<rect x="990" y="324" width="20" height="3.2" fill="#32113a"/>
<rect x="990" y="327" width="20" height="3.2" fill="#32113a"/>
<rect x="990" y="330" width="20" height="3.2" fill="#32113a"/>
<rect x="990" y="333" width="20" height="3.2" fill="#32113a"/>
<rect x="990" y="336" width="20" height="3.2" fill="#32113a"/>
<rect x="990" y="339" width="20" height="3.2" fill="#32113a"/>
<rect x="990" y="342" width="20" height="3.2" fill="#32113a"/>
<rect x="990" y="345" width="20" height="3.2" fill="#32113a"/>
<rect x="990" y="348" width="20" height="3.2" fill="#32113a"/>
<rect x="990" y="351" width="20" height="3.2" fill="#32113a"/>
<rect x="990" y="354" width="20" height="3.2" fill="#32113a"/>
<rect x="990" y="357" width="20" height="3.2" fill="#32113a"/>
<rect x="990" y="360" width="20" height="3.2" fill="#32113a"/>
<rect x="990" y="363" width="20" height="3.2" fill="#32113a"/>
<rect x="990" y="366" width="20" height="3.2" fill="#32113a"/>
<rect x="990" y="369" width="20" height="3.2" fill="#32113a"/>
<rect x="990" y="372" width="20" height="3.2" fill="#32113a"/>
<rect x="990" y="375" width="20" height="3.2" fill="#32113a"/>
<rect x="990" y="378" width="20" height="3.2" fill="#32113a"/>
<rect x="990" y="381" width="20" height="3.2" fill="#32113a"/>
<rect x="990" y="384" width="20" height="3.2" fill="#32113a"/>
<rect x="990" y="387" width="20" height="3.2" fill="#32113a"/>
<rect x="990" y="390" width="20" height="3.2" fill="#32113a"/>
<rect x="990" y="393" width="20" height="3.2" fill="#32113a"/>
<rect x="990" y="396" width="20" height="3.2" fill="#32113a"/>
<rect x="990" y="399" width="20" height="3.2" fill="#32113a"/>
<rect x="990" y="402" width="20" height="3.2" fill="#32113a"/>
</svg>