<svg xmlns="http://www.w3.org/2000/svg" width="756" height="711" viewBox="0 0 756 711">
<rect width="100%" height="100%" fill="#ffffff"/>
<text x="378.0" y="34" text-anchor="middle" font-family="Inter,Arial" font-size="24" font-weight="700" fill="#111">Terminal Universe Explorer v3.0 - Dataset v6.0</text>
<text x="378.0" y="64" text-anchor="middle" font-family="Inter,Arial" font-size="20" fill="#111">Expanded 12</text>
<text x="378.0" y="91" text-anchor="middle" font-family="Inter,Arial" font-size="13" fill="#555">Representative-set interaction matrix. Color indicates structural similarity.</text>
<text x="192" y="169" text-anchor="end" font-family="Inter,Arial" font-size="11" fill="#111">Alacritty</text>
<text x="209" y="135" transform="rotate(-58 209,135)" font-family="Inter,Arial" font-size="10" fill="#111">Alacritty</text>
<text x="192" y="207" text-anchor="end" font-family="Inter,Arial" font-size="11" fill="#111">Extraterm</text>
<text x="247" y="135" transform="rotate(-58 247,135)" font-family="Inter,Arial" font-size="10" fill="#111">Extraterm</text>
<text x="192" y="245" text-anchor="end" font-family="Inter,Arial" font-size="11" fill="#111">Foot</text>
<text x="285" y="135" transform="rotate(-58 285,135)" font-family="Inter,Arial" font-size="10" fill="#111">Foot</text>
<text x="192" y="283" text-anchor="end" font-family="Inter,Arial" font-size="11" fill="#111">GNOME Terminal</text>
<text x="323" y="135" transform="rotate(-58 323,135)" font-family="Inter,Arial" font-size="10" fill="#111">GNOME Terminal</text>
<text x="192" y="321" text-anchor="end" font-family="Inter,Arial" font-size="11" fill="#111">Kitty</text>
<text x="361" y="135" transform="rotate(-58 361,135)" font-family="Inter,Arial" font-size="10" fill="#111">Kitty</text>
<text x="192" y="359" text-anchor="end" font-family="Inter,Arial" font-size="11" fill="#111">Konsole</text>
<text x="399" y="135" transform="rotate(-58 399,135)" font-family="Inter,Arial" font-size="10" fill="#111">Konsole</text>
<text x="192" y="397" text-anchor="end" font-family="Inter,Arial" font-size="11" fill="#111">Linux console</text>
<text x="437" y="135" transform="rotate(-58 437,135)" font-family="Inter,Arial" font-size="10" fill="#111">Linux console</text>
<text x="192" y="435" text-anchor="end" font-family="Inter,Arial" font-size="11" fill="#111">Mate Terminal</text>
<text x="475" y="135" transform="rotate(-58 475,135)" font-family="Inter,Arial" font-size="10" fill="#111">Mate Terminal</text>
<text x="192" y="473" text-anchor="end" font-family="Inter,Arial" font-size="11" fill="#111">Wave Terminal</text>
<text x="513" y="135" transform="rotate(-58 513,135)" font-family="Inter,Arial" font-size="10" fill="#111">Wave Terminal</text>
<text x="192" y="511" text-anchor="end" font-family="Inter,Arial" font-size="11" fill="#111">xterm</text>
<text x="551" y="135" transform="rotate(-58 551,135)" font-family="Inter,Arial" font-size="10" fill="#111">xterm</text>
<text x="192" y="549" text-anchor="end" font-family="Inter,Arial" font-size="11" fill="#111">Rio</text>
<text x="589" y="135" transform="rotate(-58 589,135)" font-family="Inter,Arial" font-size="10" fill="#111">Rio</text>
<text x="192" y="587" text-anchor="end" font-family="Inter,Arial" font-size="11" fill="#111">st</text>
<text x="627" y="135" transform="rotate(-58 627,135)" font-family="Inter,Arial" font-size="10" fill="#111">st</text>
<rect x="200" y="145" width="36" height="36" fill="#fde725"><title>Alacritty × Alacritty: 100%</title></rect>
<rect x="238" y="145" width="36" height="36" fill="#32113a"><title>Alacritty × Extraterm: 0%</title></rect>
<rect x="276" y="145" width="36" height="36" fill="#fde725"><title>Alacritty × Foot: 100%</title></rect>
<rect x="314" y="145" width="36" height="36" fill="#32113a"><title>Alacritty × GNOME Terminal: 0%</title></rect>
<rect x="352" y="145" width="36" height="36" fill="#38c98b"><title>Alacritty × Kitty: 70%</title></rect>
<rect x="390" y="145" width="36" height="36" fill="#32113a"><title>Alacritty × Konsole: 0%</title></rect>
<rect x="428" y="145" width="36" height="36" fill="#32113a"><title>Alacritty × Linux console: 30%</title></rect>
<rect x="466" y="145" width="36" height="36" fill="#32113a"><title>Alacritty × Mate Terminal: 0%</title></rect>
<rect x="504" y="145" width="36" height="36" fill="#32113a"><title>Alacritty × Wave Terminal: 0%</title></rect>
<rect x="542" y="145" width="36" height="36" fill="#32113a"><title>Alacritty × xterm: 30%</title></rect>
<rect x="580" y="145" width="36" height="36" fill="#fde725"><title>Alacritty × Rio: 100%</title></rect>
<rect x="618" y="145" width="36" height="36" fill="#32113a"><title>Alacritty × st: 30%</title></rect>
<rect x="200" y="183" width="36" height="36" fill="#32113a"><title>Extraterm × Alacritty: 0%</title></rect>
<rect x="238" y="183" width="36" height="36" fill="#fde725"><title>Extraterm × Extraterm: 100%</title></rect>
<rect x="276" y="183" width="36" height="36" fill="#32113a"><title>Extraterm × Foot: 0%</title></rect>
<rect x="314" y="183" width="36" height="36" fill="#38c98b"><title>Extraterm × GNOME Terminal: 70%</title></rect>
<rect x="352" y="183" width="36" height="36" fill="#32113a"><title>Extraterm × Kitty: 0%</title></rect>
<rect x="390" y="183" width="36" height="36" fill="#38c98b"><title>Extraterm × Konsole: 70%</title></rect>
<rect x="428" y="183" width="36" height="36" fill="#32113a"><title>Extraterm × Linux console: 0%</title></rect>
<rect x="466" y="183" width="36" height="36" fill="#38c98b"><title>Extraterm × Mate Terminal: 70%</title></rect>
<rect x="504" y="183" width="36" height="36" fill="#32113a"><title>Extraterm × Wave Terminal: 0%</title></rect>
<rect x="542" y="183" width="36" height="36" fill="#38c98b"><title>Extraterm × xterm: 70%</title></rect>
<rect x="580" y="183" width="36" height="36" fill="#32113a"><title>Extraterm × Rio: 0%</title></rect>
<rect x="618" y="183" width="36" height="36" fill="#32113a"><title>Extraterm × st: 35%</title></rect>
<rect x="200" y="221" width="36" height="36" fill="#fde725"><title>Foot × Alacritty: 100%</title></rect>
<rect x="238" y="221" width="36" height="36" fill="#32113a"><title>Foot × Extraterm: 0%</title></rect>
<rect x="276" y="221" width="36" height="36" fill="#fde725"><title>Foot × Foot: 100%</title></rect>
<rect x="314" y="221" width="36" height="36" fill="#32113a"><title>Foot × GNOME Terminal: 0%</title></rect>
<rect x="352" y="221" width="36" height="36" fill="#38c98b"><title>Foot × Kitty: 70%</title></rect>
<rect x="390" y="221" width="36" height="36" fill="#32113a"><title>Foot × Konsole: 0%</title></rect>
<rect x="428" y="221" width="36" height="36" fill="#32113a"><title>Foot × Linux console: 30%</title></rect>
<rect x="466" y="221" width="36" height="36" fill="#32113a"><title>Foot × Mate Terminal: 0%</title></rect>
<rect x="504" y="221" width="36" height="36" fill="#32113a"><title>Foot × Wave Terminal: 0%</title></rect>
<rect x="542" y="221" width="36" height="36" fill="#32113a"><title>Foot × xterm: 30%</title></rect>
<rect x="580" y="221" width="36" height="36" fill="#fde725"><title>Foot × Rio: 100%</title></rect>
<rect x="618" y="221" width="36" height="36" fill="#32113a"><title>Foot × st: 30%</title></rect>
<rect x="200" y="259" width="36" height="36" fill="#32113a"><title>GNOME Terminal × Alacritty: 0%</title></rect>
<rect x="238" y="259" width="36" height="36" fill="#38c98b"><title>GNOME Terminal × Extraterm: 70%</title></rect>
<rect x="276" y="259" width="36" height="36" fill="#32113a"><title>GNOME Terminal × Foot: 0%</title></rect>
<rect x="314" y="259" width="36" height="36" fill="#fde725"><title>GNOME Terminal × GNOME Terminal: 100%</title></rect>
<rect x="352" y="259" width="36" height="36" fill="#32113a"><title>GNOME Terminal × Kitty: 30%</title></rect>
<rect x="390" y="259" width="36" height="36" fill="#fde725"><title>GNOME Terminal × Konsole: 100%</title></rect>
<rect x="428" y="259" width="36" height="36" fill="#32113a"><title>GNOME Terminal × Linux console: 0%</title></rect>
<rect x="466" y="259" width="36" height="36" fill="#fde725"><title>GNOME Terminal × Mate Terminal: 100%</title></rect>
<rect x="504" y="259" width="36" height="36" fill="#32113a"><title>GNOME Terminal × Wave Terminal: 0%</title></rect>
<rect x="542" y="259" width="36" height="36" fill="#38c98b"><title>GNOME Terminal × xterm: 70%</title></rect>
<rect x="580" y="259" width="36" height="36" fill="#32113a"><title>GNOME Terminal × Rio: 0%</title></rect>
<rect x="618" y="259" width="36" height="36" fill="#32113a"><title>GNOME Terminal × st: 35%</title></rect>
<rect x="200" y="297" width="36" height="36" fill="#38c98b"><title>Kitty × Alacritty: 70%</title></rect>
<rect x="238" y="297" width="36" height="36" fill="#32113a"><title>Kitty × Extraterm: 0%</title></rect>
<rect x="276" y="297" width="36" height="36" fill="#38c98b"><title>Kitty × Foot: 70%</title></rect>
<rect x="314" y="297" width="36" height="36" fill="#32113a"><title>Kitty × GNOME Terminal: 30%</title></rect>
<rect x="352" y="297" width="36" height="36" fill="#fde725"><title>Kitty × Kitty: 100%</title></rect>
<rect x="390" y="297" width="36" height="36" fill="#32113a"><title>Kitty × Konsole: 30%</title></rect>
<rect x="428" y="297" width="36" height="36" fill="#32113a"><title>Kitty × Linux console: 0%</title></rect>
<rect x="466" y="297" width="36" height="36" fill="#32113a"><title>Kitty × Mate Terminal: 30%</title></rect>
<rect x="504" y="297" width="36" height="36" fill="#32113a"><title>Kitty × Wave Terminal: 0%</title></rect>
<rect x="542" y="297" width="36" height="36" fill="#32113a"><title>Kitty × xterm: 0%</title></rect>
<rect x="580" y="297" width="36" height="36" fill="#38c98b"><title>Kitty × Rio: 70%</title></rect>
<rect x="618" y="297" width="36" height="36" fill="#32113a"><title>Kitty × st: 0%</title></rect>
<rect x="200" y="335" width="36" height="36" fill="#32113a"><title>Konsole × Alacritty: 0%</title></rect>
<rect x="238" y="335" width="36" height="36" fill="#38c98b"><title>Konsole × Extraterm: 70%</title></rect>
<rect x="276" y="335" width="36" height="36" fill="#32113a"><title>Konsole × Foot: 0%</title></rect>
<rect x="314" y="335" width="36" height="36" fill="#fde725"><title>Konsole × GNOME Terminal: 100%</title></rect>
<rect x="352" y="335" width="36" height="36" fill="#32113a"><title>Konsole × Kitty: 30%</title></rect>
<rect x="390" y="335" width="36" height="36" fill="#fde725"><title>Konsole × Konsole: 100%</title></rect>
<rect x="428" y="335" width="36" height="36" fill="#32113a"><title>Konsole × Linux console: 0%</title></rect>
<rect x="466" y="335" width="36" height="36" fill="#fde725"><title>Konsole × Mate Terminal: 100%</title></rect>
<rect x="504" y="335" width="36" height="36" fill="#32113a"><title>Konsole × Wave Terminal: 0%</title></rect>
<rect x="542" y="335" width="36" height="36" fill="#38c98b"><title>Konsole × xterm: 70%</title></rect>
<rect x="580" y="335" width="36" height="36" fill="#32113a"><title>Konsole × Rio: 0%</title></rect>
<rect x="618" y="335" width="36" height="36" fill="#32113a"><title>Konsole × st: 35%</title></rect>
<rect x="200" y="373" width="36" height="36" fill="#32113a"><title>Linux console × Alacritty: 30%</title></rect>
<rect x="238" y="373" width="36" height="36" fill="#32113a"><title>Linux console × Extraterm: 0%</title></rect>
<rect x="276" y="373" width="36" height="36" fill="#32113a"><title>Linux console × Foot: 30%</title></rect>
<rect x="314" y="373" width="36" height="36" fill="#32113a"><title>Linux console × GNOME Terminal: 0%</title></rect>
<rect x="352" y="373" width="36" height="36" fill="#32113a"><title>Linux console × Kitty: 0%</title></rect>
<rect x="390" y="373" width="36" height="36" fill="#32113a"><title>Linux console × Konsole: 0%</title></rect>
<rect x="428" y="373" width="36" height="36" fill="#fde725"><title>Linux console × Linux console: 100%</title></rect>
<rect x="466" y="373" width="36" height="36" fill="#32113a"><title>Linux console × Mate Terminal: 0%</title></rect>
<rect x="504" y="373" width="36" height="36" fill="#32113a"><title>Linux console × Wave Terminal: 0%</title></rect>
<rect x="542" y="373" width="36" height="36" fill="#32113a"><title>Linux console × xterm: 30%</title></rect>
<rect x="580" y="373" width="36" height="36" fill="#32113a"><title>Linux console × Rio: 30%</title></rect>
<rect x="618" y="373" width="36" height="36" fill="#2b82b8"><title>Linux console × st: 65%</title></rect>
<rect x="200" y="411" width="36" height="36" fill="#32113a"><title>Mate Terminal × Alacritty: 0%</title></rect>
<rect x="238" y="411" width="36" height="36" fill="#38c98b"><title>Mate Terminal × Extraterm: 70%</title></rect>
<rect x="276" y="411" width="36" height="36" fill="#32113a"><title>Mate Terminal × Foot: 0%</title></rect>
<rect x="314" y="411" width="36" height="36" fill="#fde725"><title>Mate Terminal × GNOME Terminal: 100%</title></rect>
<rect x="352" y="411" width="36" height="36" fill="#32113a"><title>Mate Terminal × Kitty: 30%</title></rect>
<rect x="390" y="411" width="36" height="36" fill="#fde725"><title>Mate Terminal × Konsole: 100%</title></rect>
<rect x="428" y="411" width="36" height="36" fill="#32113a"><title>Mate Terminal × Linux console: 0%</title></rect>
<rect x="466" y="411" width="36" height="36" fill="#fde725"><title>Mate Terminal × Mate Terminal: 100%</title></rect>
<rect x="504" y="411" width="36" height="36" fill="#32113a"><title>Mate Terminal × Wave Terminal: 0%</title></rect>
<rect x="542" y="411" width="36" height="36" fill="#38c98b"><title>Mate Terminal × xterm: 70%</title></rect>
<rect x="580" y="411" width="36" height="36" fill="#32113a"><title>Mate Terminal × Rio: 0%</title></rect>
<rect x="618" y="411" width="36" height="36" fill="#32113a"><title>Mate Terminal × st: 35%</title></rect>
<rect x="200" y="449" width="36" height="36" fill="#32113a"><title>Wave Terminal × Alacritty: 0%</title></rect>
<rect x="238" y="449" width="36" height="36" fill="#32113a"><title>Wave Terminal × Extraterm: 0%</title></rect>
<rect x="276" y="449" width="36" height="36" fill="#32113a"><title>Wave Terminal × Foot: 0%</title></rect>
<rect x="314" y="449" width="36" height="36" fill="#32113a"><title>Wave Terminal × GNOME Terminal: 0%</title></rect>
<rect x="352" y="449" width="36" height="36" fill="#32113a"><title>Wave Terminal × Kitty: 0%</title></rect>
<rect x="390" y="449" width="36" height="36" fill="#32113a"><title>Wave Terminal × Konsole: 0%</title></rect>
<rect x="428" y="449" width="36" height="36" fill="#32113a"><title>Wave Terminal × Linux console: 0%</title></rect>
<rect x="466" y="449" width="36" height="36" fill="#32113a"><title>Wave Terminal × Mate Terminal: 0%</title></rect>
<rect x="504" y="449" width="36" height="36" fill="#fde725"><title>Wave Terminal × Wave Terminal: 100%</title></rect>
<rect x="542" y="449" width="36" height="36" fill="#32113a"><title>Wave Terminal × xterm: 0%</title></rect>
<rect x="580" y="449" width="36" height="36" fill="#32113a"><title>Wave Terminal × Rio: 0%</title></rect>
<rect x="618" y="449" width="36" height="36" fill="#32113a"><title>Wave Terminal × st: 0%</title></rect>
<rect x="200" y="487" width="36" height="36" fill="#32113a"><title>xterm × Alacritty: 30%</title></rect>
<rect x="238" y="487" width="36" height="36" fill="#38c98b"><title>xterm × Extraterm: 70%</title></rect>
<rect x="276" y="487" width="36" height="36" fill="#32113a"><title>xterm × Foot: 30%</title></rect>
<rect x="314" y="487" width="36" height="36" fill="#38c98b"><title>xterm × GNOME Terminal: 70%</title></rect>
<rect x="352" y="487" width="36" height="36" fill="#32113a"><title>xterm × Kitty: 0%</title></rect>
<rect x="390" y="487" width="36" height="36" fill="#38c98b"><title>xterm × Konsole: 70%</title></rect>
<rect x="428" y="487" width="36" height="36" fill="#32113a"><title>xterm × Linux console: 30%</title></rect>
<rect x="466" y="487" width="36" height="36" fill="#38c98b"><title>xterm × Mate Terminal: 70%</title></rect>
<rect x="504" y="487" width="36" height="36" fill="#32113a"><title>xterm × Wave Terminal: 0%</title></rect>
<rect x="542" y="487" width="36" height="36" fill="#fde725"><title>xterm × xterm: 100%</title></rect>
<rect x="580" y="487" width="36" height="36" fill="#32113a"><title>xterm × Rio: 30%</title></rect>
<rect x="618" y="487" width="36" height="36" fill="#2b82b8"><title>xterm × st: 65%</title></rect>
<rect x="200" y="525" width="36" height="36" fill="#fde725"><title>Rio × Alacritty: 100%</title></rect>
<rect x="238" y="525" width="36" height="36" fill="#32113a"><title>Rio × Extraterm: 0%</title></rect>
<rect x="276" y="525" width="36" height="36" fill="#fde725"><title>Rio × Foot: 100%</title></rect>
<rect x="314" y="525" width="36" height="36" fill="#32113a"><title>Rio × GNOME Terminal: 0%</title></rect>
<rect x="352" y="525" width="36" height="36" fill="#38c98b"><title>Rio × Kitty: 70%</title></rect>
<rect x="390" y="525" width="36" height="36" fill="#32113a"><title>Rio × Konsole: 0%</title></rect>
<rect x="428" y="525" width="36" height="36" fill="#32113a"><title>Rio × Linux console: 30%</title></rect>
<rect x="466" y="525" width="36" height="36" fill="#32113a"><title>Rio × Mate Terminal: 0%</title></rect>
<rect x="504" y="525" width="36" height="36" fill="#32113a"><title>Rio × Wave Terminal: 0%</title></rect>
<rect x="542" y="525" width="36" height="36" fill="#32113a"><title>Rio × xterm: 30%</title></rect>
<rect x="580" y="525" width="36" height="36" fill="#fde725"><title>Rio × Rio: 100%</title></rect>
<rect x="618" y="525" width="36" height="36" fill="#32113a"><title>Rio × st: 30%</title></rect>
<rect x="200" y="563" width="36" height="36" fill="#32113a"><title>st × Alacritty: 30%</title></rect>
<rect x="238" y="563" width="36" height="36" fill="#32113a"><title>st × Extraterm: 35%</title></rect>
<rect x="276" y="563" width="36" height="36" fill="#32113a"><title>st × Foot: 30%</title></rect>
<rect x="314" y="563" width="36" height="36" fill="#32113a"><title>st × GNOME Terminal: 35%</title></rect>
<rect x="352" y="563" width="36" height="36" fill="#32113a"><title>st × Kitty: 0%</title></rect>
<rect x="390" y="563" width="36" height="36" fill="#32113a"><title>st × Konsole: 35%</title></rect>
<rect x="428" y="563" width="36" height="36" fill="#2b82b8"><title>st × Linux console: 65%</title></rect>
<rect x="466" y="563" width="36" height="36" fill="#32113a"><title>st × Mate Terminal: 35%</title></rect>
<rect x="504" y="563" width="36" height="36" fill="#32113a"><title>st × Wave Terminal: 0%</title></rect>
<rect x="542" y="563" width="36" height="36" fill="#2b82b8"><title>st × xterm: 65%</title></rect>
<rect x="580" y="563" width="36" height="36" fill="#32113a"><title>st × Rio: 30%</title></rect>
<rect x="618" y="563" width="36" height="36" fill="#fde725"><title>st × st: 100%</title></rect>
</svg>