<svg xmlns="http://www.w3.org/2000/svg" width="925" height="810" viewBox="0 0 925 810">
<rect width="100%" height="100%" fill="#ffffff"/>
<text x="462.5" y="36" text-anchor="middle" font-family="Inter,Arial" font-size="24" font-weight="700" fill="#111">Terminal Universe Explorer v3.0 - Dataset v6.0</text>
<text x="462.5" y="70" text-anchor="middle" font-family="Inter,Arial" font-size="20" fill="#111">Recommended 10</text>
<text x="462.5" y="102" text-anchor="middle" font-family="Inter,Arial" font-size="13" fill="#555">Representative-set interaction matrix. Color indicates shared structural similarity.</text>
<line x1="285" y1="235" x2="741" y2="235" stroke="#bbb"/>
<line x1="275" y1="245" x2="275" y2="701" stroke="#bbb"/>
<text x="267" y="271.0" text-anchor="end" font-family="Inter,Arial" font-size="13" fill="#111">Alacritty</text>
<text x="267" y="317.0" text-anchor="end" font-family="Inter,Arial" font-size="13" fill="#111">Extraterm</text>
<text x="267" y="363.0" text-anchor="end" font-family="Inter,Arial" font-size="13" fill="#111">Foot</text>
<text x="267" y="409.0" text-anchor="end" font-family="Inter,Arial" font-size="13" fill="#111">GNOME Terminal</text>
<text x="267" y="455.0" text-anchor="end" font-family="Inter,Arial" font-size="13" fill="#111">Kitty</text>
<text x="267" y="501.0" text-anchor="end" font-family="Inter,Arial" font-size="13" fill="#111">Konsole</text>
<text x="267" y="547.0" text-anchor="end" font-family="Inter,Arial" font-size="13" fill="#111">Linux console</text>
<text x="267" y="593.0" text-anchor="end" font-family="Inter,Arial" font-size="13" fill="#111">Mate Terminal</text>
<text x="267" y="639.0" text-anchor="end" font-family="Inter,Arial" font-size="13" fill="#111">Wave Terminal</text>
<text x="267" y="685.0" text-anchor="end" font-family="Inter,Arial" font-size="13" fill="#111">xterm</text>
<text x="306.0" y="219" text-anchor="end" font-family="Inter,Arial" font-size="12" fill="#111" transform="rotate(-48 306.0,219)">Alacritty</text>
<text x="352.0" y="219" text-anchor="end" font-family="Inter,Arial" font-size="12" fill="#111" transform="rotate(-48 352.0,219)">Extraterm</text>
<text x="398.0" y="219" text-anchor="end" font-family="Inter,Arial" font-size="12" fill="#111" transform="rotate(-48 398.0,219)">Foot</text>
<text x="444.0" y="219" text-anchor="end" font-family="Inter,Arial" font-size="12" fill="#111" transform="rotate(-48 444.0,219)">GNOME Terminal</text>
<text x="490.0" y="219" text-anchor="end" font-family="Inter,Arial" font-size="12" fill="#111" transform="rotate(-48 490.0,219)">Kitty</text>
<text x="536.0" y="219" text-anchor="end" font-family="Inter,Arial" font-size="12" fill="#111" transform="rotate(-48 536.0,219)">Konsole</text>
<text x="582.0" y="219" text-anchor="end" font-family="Inter,Arial" font-size="12" fill="#111" transform="rotate(-48 582.0,219)">Linux console</text>
<text x="628.0" y="219" text-anchor="end" font-family="Inter,Arial" font-size="12" fill="#111" transform="rotate(-48 628.0,219)">Mate Terminal</text>
<text x="674.0" y="219" text-anchor="end" font-family="Inter,Arial" font-size="12" fill="#111" transform="rotate(-48 674.0,219)">Wave Terminal</text>
<text x="720.0" y="219" text-anchor="end" font-family="Inter,Arial" font-size="12" fill="#111" transform="rotate(-48 720.0,219)">xterm</text>
<rect x="285" y="245" width="42" height="42" rx="4" fill="#fde725"><title>Alacritty × Alacritty: 100%</title></rect>
<rect x="331" y="245" width="42" height="42" rx="4" fill="#32113a"><title>Alacritty × Extraterm: 0%</title></rect>
<rect x="377" y="245" width="42" height="42" rx="4" fill="#fde725"><title>Alacritty × Foot: 100%</title></rect>
<rect x="423" y="245" width="42" height="42" rx="4" fill="#32113a"><title>Alacritty × GNOME Terminal: 0%</title></rect>
<rect x="469" y="245" width="42" height="42" rx="4" fill="#38c98b"><title>Alacritty × Kitty: 70%</title></rect>
<rect x="515" y="245" width="42" height="42" rx="4" fill="#32113a"><title>Alacritty × Konsole: 0%</title></rect>
<rect x="561" y="245" width="42" height="42" rx="4" fill="#32113a"><title>Alacritty × Linux console: 30%</title></rect>
<rect x="607" y="245" width="42" height="42" rx="4" fill="#32113a"><title>Alacritty × Mate Terminal: 0%</title></rect>
<rect x="653" y="245" width="42" height="42" rx="4" fill="#32113a"><title>Alacritty × Wave Terminal: 0%</title></rect>
<rect x="699" y="245" width="42" height="42" rx="4" fill="#32113a"><title>Alacritty × xterm: 30%</title></rect>
<rect x="285" y="291" width="42" height="42" rx="4" fill="#32113a"><title>Extraterm × Alacritty: 0%</title></rect>
<rect x="331" y="291" width="42" height="42" rx="4" fill="#fde725"><title>Extraterm × Extraterm: 100%</title></rect>
<rect x="377" y="291" width="42" height="42" rx="4" fill="#32113a"><title>Extraterm × Foot: 0%</title></rect>
<rect x="423" y="291" width="42" height="42" rx="4" fill="#38c98b"><title>Extraterm × GNOME Terminal: 70%</title></rect>
<rect x="469" y="291" width="42" height="42" rx="4" fill="#32113a"><title>Extraterm × Kitty: 0%</title></rect>
<rect x="515" y="291" width="42" height="42" rx="4" fill="#38c98b"><title>Extraterm × Konsole: 70%</title></rect>
<rect x="561" y="291" width="42" height="42" rx="4" fill="#32113a"><title>Extraterm × Linux console: 0%</title></rect>
<rect x="607" y="291" width="42" height="42" rx="4" fill="#38c98b"><title>Extraterm × Mate Terminal: 70%</title></rect>
<rect x="653" y="291" width="42" height="42" rx="4" fill="#32113a"><title>Extraterm × Wave Terminal: 0%</title></rect>
<rect x="699" y="291" width="42" height="42" rx="4" fill="#38c98b"><title>Extraterm × xterm: 70%</title></rect>
<rect x="285" y="337" width="42" height="42" rx="4" fill="#fde725"><title>Foot × Alacritty: 100%</title></rect>
<rect x="331" y="337" width="42" height="42" rx="4" fill="#32113a"><title>Foot × Extraterm: 0%</title></rect>
<rect x="377" y="337" width="42" height="42" rx="4" fill="#fde725"><title>Foot × Foot: 100%</title></rect>
<rect x="423" y="337" width="42" height="42" rx="4" fill="#32113a"><title>Foot × GNOME Terminal: 0%</title></rect>
<rect x="469" y="337" width="42" height="42" rx="4" fill="#38c98b"><title>Foot × Kitty: 70%</title></rect>
<rect x="515" y="337" width="42" height="42" rx="4" fill="#32113a"><title>Foot × Konsole: 0%</title></rect>
<rect x="561" y="337" width="42" height="42" rx="4" fill="#32113a"><title>Foot × Linux console: 30%</title></rect>
<rect x="607" y="337" width="42" height="42" rx="4" fill="#32113a"><title>Foot × Mate Terminal: 0%</title></rect>
<rect x="653" y="337" width="42" height="42" rx="4" fill="#32113a"><title>Foot × Wave Terminal: 0%</title></rect>
<rect x="699" y="337" width="42" height="42" rx="4" fill="#32113a"><title>Foot × xterm: 30%</title></rect>
<rect x="285" y="383" width="42" height="42" rx="4" fill="#32113a"><title>GNOME Terminal × Alacritty: 0%</title></rect>
<rect x="331" y="383" width="42" height="42" rx="4" fill="#38c98b"><title>GNOME Terminal × Extraterm: 70%</title></rect>
<rect x="377" y="383" width="42" height="42" rx="4" fill="#32113a"><title>GNOME Terminal × Foot: 0%</title></rect>
<rect x="423" y="383" width="42" height="42" rx="4" fill="#fde725"><title>GNOME Terminal × GNOME Terminal: 100%</title></rect>
<rect x="469" y="383" width="42" height="42" rx="4" fill="#32113a"><title>GNOME Terminal × Kitty: 30%</title></rect>
<rect x="515" y="383" width="42" height="42" rx="4" fill="#fde725"><title>GNOME Terminal × Konsole: 100%</title></rect>
<rect x="561" y="383" width="42" height="42" rx="4" fill="#32113a"><title>GNOME Terminal × Linux console: 0%</title></rect>
<rect x="607" y="383" width="42" height="42" rx="4" fill="#fde725"><title>GNOME Terminal × Mate Terminal: 100%</title></rect>
<rect x="653" y="383" width="42" height="42" rx="4" fill="#32113a"><title>GNOME Terminal × Wave Terminal: 0%</title></rect>
<rect x="699" y="383" width="42" height="42" rx="4" fill="#38c98b"><title>GNOME Terminal × xterm: 70%</title></rect>
<rect x="285" y="429" width="42" height="42" rx="4" fill="#38c98b"><title>Kitty × Alacritty: 70%</title></rect>
<rect x="331" y="429" width="42" height="42" rx="4" fill="#32113a"><title>Kitty × Extraterm: 0%</title></rect>
<rect x="377" y="429" width="42" height="42" rx="4" fill="#38c98b"><title>Kitty × Foot: 70%</title></rect>
<rect x="423" y="429" width="42" height="42" rx="4" fill="#32113a"><title>Kitty × GNOME Terminal: 30%</title></rect>
<rect x="469" y="429" width="42" height="42" rx="4" fill="#fde725"><title>Kitty × Kitty: 100%</title></rect>
<rect x="515" y="429" width="42" height="42" rx="4" fill="#32113a"><title>Kitty × Konsole: 30%</title></rect>
<rect x="561" y="429" width="42" height="42" rx="4" fill="#32113a"><title>Kitty × Linux console: 0%</title></rect>
<rect x="607" y="429" width="42" height="42" rx="4" fill="#32113a"><title>Kitty × Mate Terminal: 30%</title></rect>
<rect x="653" y="429" width="42" height="42" rx="4" fill="#32113a"><title>Kitty × Wave Terminal: 0%</title></rect>
<rect x="699" y="429" width="42" height="42" rx="4" fill="#32113a"><title>Kitty × xterm: 0%</title></rect>
<rect x="285" y="475" width="42" height="42" rx="4" fill="#32113a"><title>Konsole × Alacritty: 0%</title></rect>
<rect x="331" y="475" width="42" height="42" rx="4" fill="#38c98b"><title>Konsole × Extraterm: 70%</title></rect>
<rect x="377" y="475" width="42" height="42" rx="4" fill="#32113a"><title>Konsole × Foot: 0%</title></rect>
<rect x="423" y="475" width="42" height="42" rx="4" fill="#fde725"><title>Konsole × GNOME Terminal: 100%</title></rect>
<rect x="469" y="475" width="42" height="42" rx="4" fill="#32113a"><title>Konsole × Kitty: 30%</title></rect>
<rect x="515" y="475" width="42" height="42" rx="4" fill="#fde725"><title>Konsole × Konsole: 100%</title></rect>
<rect x="561" y="475" width="42" height="42" rx="4" fill="#32113a"><title>Konsole × Linux console: 0%</title></rect>
<rect x="607" y="475" width="42" height="42" rx="4" fill="#fde725"><title>Konsole × Mate Terminal: 100%</title></rect>
<rect x="653" y="475" width="42" height="42" rx="4" fill="#32113a"><title>Konsole × Wave Terminal: 0%</title></rect>
<rect x="699" y="475" width="42" height="42" rx="4" fill="#38c98b"><title>Konsole × xterm: 70%</title></rect>
<rect x="285" y="521" width="42" height="42" rx="4" fill="#32113a"><title>Linux console × Alacritty: 30%</title></rect>
<rect x="331" y="521" width="42" height="42" rx="4" fill="#32113a"><title>Linux console × Extraterm: 0%</title></rect>
<rect x="377" y="521" width="42" height="42" rx="4" fill="#32113a"><title>Linux console × Foot: 30%</title></rect>
<rect x="423" y="521" width="42" height="42" rx="4" fill="#32113a"><title>Linux console × GNOME Terminal: 0%</title></rect>
<rect x="469" y="521" width="42" height="42" rx="4" fill="#32113a"><title>Linux console × Kitty: 0%</title></rect>
<rect x="515" y="521" width="42" height="42" rx="4" fill="#32113a"><title>Linux console × Konsole: 0%</title></rect>
<rect x="561" y="521" width="42" height="42" rx="4" fill="#fde725"><title>Linux console × Linux console: 100%</title></rect>
<rect x="607" y="521" width="42" height="42" rx="4" fill="#32113a"><title>Linux console × Mate Terminal: 0%</title></rect>
<rect x="653" y="521" width="42" height="42" rx="4" fill="#32113a"><title>Linux console × Wave Terminal: 0%</title></rect>
<rect x="699" y="521" width="42" height="42" rx="4" fill="#32113a"><title>Linux console × xterm: 30%</title></rect>
<rect x="285" y="567" width="42" height="42" rx="4" fill="#32113a"><title>Mate Terminal × Alacritty: 0%</title></rect>
<rect x="331" y="567" width="42" height="42" rx="4" fill="#38c98b"><title>Mate Terminal × Extraterm: 70%</title></rect>
<rect x="377" y="567" width="42" height="42" rx="4" fill="#32113a"><title>Mate Terminal × Foot: 0%</title></rect>
<rect x="423" y="567" width="42" height="42" rx="4" fill="#fde725"><title>Mate Terminal × GNOME Terminal: 100%</title></rect>
<rect x="469" y="567" width="42" height="42" rx="4" fill="#32113a"><title>Mate Terminal × Kitty: 30%</title></rect>
<rect x="515" y="567" width="42" height="42" rx="4" fill="#fde725"><title>Mate Terminal × Konsole: 100%</title></rect>
<rect x="561" y="567" width="42" height="42" rx="4" fill="#32113a"><title>Mate Terminal × Linux console: 0%</title></rect>
<rect x="607" y="567" width="42" height="42" rx="4" fill="#fde725"><title>Mate Terminal × Mate Terminal: 100%</title></rect>
<rect x="653" y="567" width="42" height="42" rx="4" fill="#32113a"><title>Mate Terminal × Wave Terminal: 0%</title></rect>
<rect x="699" y="567" width="42" height="42" rx="4" fill="#38c98b"><title>Mate Terminal × xterm: 70%</title></rect>
<rect x="285" y="613" width="42" height="42" rx="4" fill="#32113a"><title>Wave Terminal × Alacritty: 0%</title></rect>
<rect x="331" y="613" width="42" height="42" rx="4" fill="#32113a"><title>Wave Terminal × Extraterm: 0%</title></rect>
<rect x="377" y="613" width="42" height="42" rx="4" fill="#32113a"><title>Wave Terminal × Foot: 0%</title></rect>
<rect x="423" y="613" width="42" height="42" rx="4" fill="#32113a"><title>Wave Terminal × GNOME Terminal: 0%</title></rect>
<rect x="469" y="613" width="42" height="42" rx="4" fill="#32113a"><title>Wave Terminal × Kitty: 0%</title></rect>
<rect x="515" y="613" width="42" height="42" rx="4" fill="#32113a"><title>Wave Terminal × Konsole: 0%</title></rect>
<rect x="561" y="613" width="42" height="42" rx="4" fill="#32113a"><title>Wave Terminal × Linux console: 0%</title></rect>
<rect x="607" y="613" width="42" height="42" rx="4" fill="#32113a"><title>Wave Terminal × Mate Terminal: 0%</title></rect>
<rect x="653" y="613" width="42" height="42" rx="4" fill="#fde725"><title>Wave Terminal × Wave Terminal: 100%</title></rect>
<rect x="699" y="613" width="42" height="42" rx="4" fill="#32113a"><title>Wave Terminal × xterm: 0%</title></rect>
<rect x="285" y="659" width="42" height="42" rx="4" fill="#32113a"><title>xterm × Alacritty: 30%</title></rect>
<rect x="331" y="659" width="42" height="42" rx="4" fill="#38c98b"><title>xterm × Extraterm: 70%</title></rect>
<rect x="377" y="659" width="42" height="42" rx="4" fill="#32113a"><title>xterm × Foot: 30%</title></rect>
<rect x="423" y="659" width="42" height="42" rx="4" fill="#38c98b"><title>xterm × GNOME Terminal: 70%</title></rect>
<rect x="469" y="659" width="42" height="42" rx="4" fill="#32113a"><title>xterm × Kitty: 0%</title></rect>
<rect x="515" y="659" width="42" height="42" rx="4" fill="#38c98b"><title>xterm × Konsole: 70%</title></rect>
<rect x="561" y="659" width="42" height="42" rx="4" fill="#32113a"><title>xterm × Linux console: 30%</title></rect>
<rect x="607" y="659" width="42" height="42" rx="4" fill="#38c98b"><title>xterm × Mate Terminal: 70%</title></rect>
<rect x="653" y="659" width="42" height="42" rx="4" fill="#32113a"><title>xterm × Wave Terminal: 0%</title></rect>
<rect x="699" y="659" width="42" height="42" rx="4" fill="#fde725"><title>xterm × xterm: 100%</title></rect>
<text x="780" y="227" font-family="Inter,Arial" font-size="12" fill="#111">Similarity</text>
<rect x="780" y="245" width="22" height="18" rx="3" fill="#32113a"/>
<text x="812" y="259" font-family="Inter,Arial" font-size="11" fill="#111">low</text>
<rect x="780" y="273" width="22" height="18" rx="3" fill="#2b82b8"/>
<text x="812" y="287" font-family="Inter,Arial" font-size="11" fill="#111">mid</text>
<rect x="780" y="301" width="22" height="18" rx="3" fill="#38c98b"/>
<text x="812" y="315" font-family="Inter,Arial" font-size="11" fill="#111">high</text>
<rect x="780" y="329" width="22" height="18" rx="3" fill="#fde725"/>
<text x="812" y="343" font-family="Inter,Arial" font-size="11" fill="#111">same</text>
<text x="462.5" y="775" text-anchor="middle" font-family="Inter,Arial" font-size="13" fill="#555">Rows and columns show representative terminals; cells encode shared core structural properties.</text>
</svg>