<svg xmlns="http://www.w3.org/2000/svg" width="649" height="534" viewBox="0 0 649 534">
<rect width="100%" height="100%" fill="#ffffff"/>
<text x="324.5" y="36" text-anchor="middle" font-family="Inter,Arial" font-size="24" font-weight="700" fill="#111">Terminal Universe Explorer v3.0 - Dataset v6.0</text>
<text x="324.5" y="70" text-anchor="middle" font-family="Inter,Arial" font-size="20" fill="#111">Strict Minimum 4</text>
<text x="324.5" y="102" text-anchor="middle" font-family="Inter,Arial" font-size="13" fill="#555">Representative-set interaction matrix. Color indicates shared structural similarity.</text>
<line x1="285" y1="235" x2="465" y2="235" stroke="#bbb"/>
<line x1="275" y1="245" x2="275" y2="425" stroke="#bbb"/>
<text x="267" y="271.0" text-anchor="end" font-family="Inter,Arial" font-size="13" fill="#111">COSMIC Terminal</text>
<text x="267" y="317.0" text-anchor="end" font-family="Inter,Arial" font-size="13" fill="#111">Extraterm</text>
<text x="267" y="363.0" text-anchor="end" font-family="Inter,Arial" font-size="13" fill="#111">Linux console</text>
<text x="267" y="409.0" text-anchor="end" font-family="Inter,Arial" font-size="13" fill="#111">Wave Terminal</text>
<text x="306.0" y="219" text-anchor="end" font-family="Inter,Arial" font-size="12" fill="#111" transform="rotate(-48 306.0,219)">COSMIC Terminal</text>
<text x="352.0" y="219" text-anchor="end" font-family="Inter,Arial" font-size="12" fill="#111" transform="rotate(-48 352.0,219)">Extraterm</text>
<text x="398.0" y="219" text-anchor="end" font-family="Inter,Arial" font-size="12" fill="#111" transform="rotate(-48 398.0,219)">Linux console</text>
<text x="444.0" y="219" text-anchor="end" font-family="Inter,Arial" font-size="12" fill="#111" transform="rotate(-48 444.0,219)">Wave Terminal</text>
<rect x="285" y="245" width="42" height="42" rx="4" fill="#fde725"><title>COSMIC Terminal × COSMIC Terminal: 100%</title></rect>
<rect x="331" y="245" width="42" height="42" rx="4" fill="#32113a"><title>COSMIC Terminal × Extraterm: 0%</title></rect>
<rect x="377" y="245" width="42" height="42" rx="4" fill="#32113a"><title>COSMIC Terminal × Linux console: 0%</title></rect>
<rect x="423" y="245" width="42" height="42" rx="4" fill="#32113a"><title>COSMIC Terminal × Wave Terminal: 0%</title></rect>
<rect x="285" y="291" width="42" height="42" rx="4" fill="#32113a"><title>Extraterm × COSMIC Terminal: 0%</title></rect>
<rect x="331" y="291" width="42" height="42" rx="4" fill="#fde725"><title>Extraterm × Extraterm: 100%</title></rect>
<rect x="377" y="291" width="42" height="42" rx="4" fill="#32113a"><title>Extraterm × Linux console: 0%</title></rect>
<rect x="423" y="291" width="42" height="42" rx="4" fill="#32113a"><title>Extraterm × Wave Terminal: 0%</title></rect>
<rect x="285" y="337" width="42" height="42" rx="4" fill="#32113a"><title>Linux console × COSMIC Terminal: 0%</title></rect>
<rect x="331" y="337" width="42" height="42" rx="4" fill="#32113a"><title>Linux console × Extraterm: 0%</title></rect>
<rect x="377" y="337" width="42" height="42" rx="4" fill="#fde725"><title>Linux console × Linux console: 100%</title></rect>
<rect x="423" y="337" width="42" height="42" rx="4" fill="#32113a"><title>Linux console × Wave Terminal: 0%</title></rect>
<rect x="285" y="383" width="42" height="42" rx="4" fill="#32113a"><title>Wave Terminal × COSMIC Terminal: 0%</title></rect>
<rect x="331" y="383" width="42" height="42" rx="4" fill="#32113a"><title>Wave Terminal × Extraterm: 0%</title></rect>
<rect x="377" y="383" width="42" height="42" rx="4" fill="#32113a"><title>Wave Terminal × Linux console: 0%</title></rect>
<rect x="423" y="383" width="42" height="42" rx="4" fill="#fde725"><title>Wave Terminal × Wave Terminal: 100%</title></rect>
<text x="504" y="227" font-family="Inter,Arial" font-size="12" fill="#111">Similarity</text>
<rect x="504" y="245" width="22" height="18" rx="3" fill="#32113a"/>
<text x="536" y="259" font-family="Inter,Arial" font-size="11" fill="#111">low</text>
<rect x="504" y="273" width="22" height="18" rx="3" fill="#2b82b8"/>
<text x="536" y="287" font-family="Inter,Arial" font-size="11" fill="#111">mid</text>
<rect x="504" y="301" width="22" height="18" rx="3" fill="#38c98b"/>
<text x="536" y="315" font-family="Inter,Arial" font-size="11" fill="#111">high</text>
<rect x="504" y="329" width="22" height="18" rx="3" fill="#fde725"/>
<text x="536" y="343" font-family="Inter,Arial" font-size="11" fill="#111">same</text>
<text x="324.5" y="499" text-anchor="middle" font-family="Inter,Arial" font-size="13" fill="#555">Rows and columns show representative terminals; cells encode shared core structural properties.</text>
</svg>