<svg xmlns="http://www.w3.org/2000/svg" width="720" height="460" viewBox="0 0 720 460">
<rect width="100%" height="100%" fill="#ffffff"/>
<text x="360.0" y="34" text-anchor="middle" font-family="Inter,Arial" font-size="24" font-weight="700" fill="#111">Terminal Universe Explorer v3.0 - Dataset v6.0</text>
<text x="360.0" y="64" text-anchor="middle" font-family="Inter,Arial" font-size="20" fill="#111">Strict Minimum 4</text>
<text x="360.0" y="91" text-anchor="middle" font-family="Inter,Arial" font-size="13" fill="#555">Representative-set interaction matrix. Color indicates structural similarity.</text>
<text x="192" y="169" text-anchor="end" font-family="Inter,Arial" font-size="11" fill="#111">COSMIC Terminal</text>
<text x="209" y="135" transform="rotate(-58 209,135)" font-family="Inter,Arial" font-size="10" fill="#111">COSMIC Terminal</text>
<text x="192" y="207" text-anchor="end" font-family="Inter,Arial" font-size="11" fill="#111">Extraterm</text>
<text x="247" y="135" transform="rotate(-58 247,135)" font-family="Inter,Arial" font-size="10" fill="#111">Extraterm</text>
<text x="192" y="245" text-anchor="end" font-family="Inter,Arial" font-size="11" fill="#111">Linux console</text>
<text x="285" y="135" transform="rotate(-58 285,135)" font-family="Inter,Arial" font-size="10" fill="#111">Linux console</text>
<text x="192" y="283" text-anchor="end" font-family="Inter,Arial" font-size="11" fill="#111">Wave Terminal</text>
<text x="323" y="135" transform="rotate(-58 323,135)" font-family="Inter,Arial" font-size="10" fill="#111">Wave Terminal</text>
<rect x="200" y="145" width="36" height="36" fill="#fde725"><title>COSMIC Terminal × COSMIC Terminal: 100%</title></rect>
<rect x="238" y="145" width="36" height="36" fill="#32113a"><title>COSMIC Terminal × Extraterm: 0%</title></rect>
<rect x="276" y="145" width="36" height="36" fill="#32113a"><title>COSMIC Terminal × Linux console: 0%</title></rect>
<rect x="314" y="145" width="36" height="36" fill="#32113a"><title>COSMIC Terminal × Wave Terminal: 0%</title></rect>
<rect x="200" y="183" width="36" height="36" fill="#32113a"><title>Extraterm × COSMIC Terminal: 0%</title></rect>
<rect x="238" y="183" width="36" height="36" fill="#fde725"><title>Extraterm × Extraterm: 100%</title></rect>
<rect x="276" y="183" width="36" height="36" fill="#32113a"><title>Extraterm × Linux console: 0%</title></rect>
<rect x="314" y="183" width="36" height="36" fill="#32113a"><title>Extraterm × Wave Terminal: 0%</title></rect>
<rect x="200" y="221" width="36" height="36" fill="#32113a"><title>Linux console × COSMIC Terminal: 0%</title></rect>
<rect x="238" y="221" width="36" height="36" fill="#32113a"><title>Linux console × Extraterm: 0%</title></rect>
<rect x="276" y="221" width="36" height="36" fill="#fde725"><title>Linux console × Linux console: 100%</title></rect>
<rect x="314" y="221" width="36" height="36" fill="#32113a"><title>Linux console × Wave Terminal: 0%</title></rect>
<rect x="200" y="259" width="36" height="36" fill="#32113a"><title>Wave Terminal × COSMIC Terminal: 0%</title></rect>
<rect x="238" y="259" width="36" height="36" fill="#32113a"><title>Wave Terminal × Extraterm: 0%</title></rect>
<rect x="276" y="259" width="36" height="36" fill="#32113a"><title>Wave Terminal × Linux console: 0%</title></rect>
<rect x="314" y="259" width="36" height="36" fill="#fde725"><title>Wave Terminal × Wave Terminal: 100%</title></rect>
</svg>